<?xml version="1.0" encoding="UTF-8" standalone="no"?><svg xmlns="http://www.w3.org/2000/svg" xmlns:xlink="http://www.w3.org/1999/xlink" fill="#000000" height="281.1" preserveAspectRatio="xMidYMid meet" version="1" viewBox="-0.0 -0.0 318.0 281.1" width="318" zoomAndPan="magnify"><g id="change1_1"><path d="m241.93 265.68-13.259-13.536-11.529-11.786-9.9787-10.196-8.5873-8.7653-7.3151-7.4535-6.2019-6.3206-5.2478-5.3466-4.4328-4.492-3.7967-3.8361-3.2799-3.2994-2.9221-2.9218-2.7233-2.7031-2.6636-2.6435-2.7829-2.723-3.0016-2.9814-6.182 6.4398-6.1622 6.4199-6.182 6.4398-6.182 6.4199-6.1622 6.4398-6.182 6.4398-6.1622 6.4398-6.182 6.4398-6.182 6.4398-6.1622 6.4398-6.182 6.4398-6.1622 6.4398-6.182 6.4398-6.182 6.4398-6.1622 6.4398-6.182 6.4597-0.59634-0.03975-0.63609-0.09938-0.63609-0.17889-0.67585-0.21863-0.67585-0.27827-0.69573-0.33789-0.71561-0.37764-0.71561-0.4174-0.71561-0.45714-0.73548-0.4969-0.73548-0.53666-0.73548-0.5764-0.73548-0.5764-0.73548-0.61616-0.71561-0.61615-0.71561-0.65591-0.71561-0.63603-0.69573-0.67579-0.67585-0.6559-0.65597-0.65591-1.2722-1.3118-1.1927-1.2522-1.0535-1.1727-0.93426-1.0534-0.79512-0.93417-0.6361-0.73541-0.5367-1.0932-0.51683-1.0534-0.51683-1.0733-0.51683-1.0534-0.51683-1.0534-0.51683-1.0534-0.49695-1.0336-0.51683-1.0534 2.286-2.3255 3.578-3.5976 4.731-4.6907 5.705-5.6448 6.52-6.4199 7.1362-7.0361 7.6133-7.4932 7.9313-7.7914 8.0307-7.9106 8.0108-7.8908 7.812-7.6721 7.4344-7.3342 6.8976-6.7976 6.182-6.1019 5.2875-5.2671 4.2738-4.2535 0.49695-0.33789 0.39756-0.25839 0.29817-0.21864 0.25841-0.19876 0.19878-0.21863 0.21866-0.23851 0.25841-0.29814 0.29817-0.39752-3.8762-3.9553-3.8961-3.9752-3.8762-3.9553-3.8762-3.9553-3.8762-3.9553-3.8762-3.9553-3.8961-3.9553-3.8762-3.9553-3.8762-3.9354-3.8762-3.9553-3.8762-3.9553-3.8961-3.9354-3.8762-3.9553-3.8762-3.9553-3.8762-3.9354-3.8762-3.9553-2.1468 2.4646-2.1468 2.4845-2.1269 2.4646-2.1269 2.4845-2.1071 2.4845-2.1071 2.5044-2.0872 2.5242-2.0673 2.5242-2.0673 2.5242-2.0276 2.564-2.0276 2.564-1.9878 2.5839-1.9878 2.5839-1.9282 2.6236-1.9282 2.6236-1.8884 2.6634-0.05963 0.19876-0.05963 0.19876-0.03976 0.21864-0.01988 0.19876-0.47707-0.19876-0.45719-0.19876-0.47707-0.17888-0.47707-0.15901-2.286-1.9081-2.2661-1.928-2.286-1.9081-2.2661-1.928-2.286-1.9081-2.2661-1.9081-2.286-1.9081-2.2661-1.928-2.286-1.9081-2.286-1.9081-2.2661-1.9081-2.286-1.9081-2.2661-1.9081-2.286-1.9081-2.2661-1.8882-2.286-1.9081 1.0336-1.3118 1.0138-1.2919 1.0336-1.2919 1.0336-1.3118 1.0336-1.2919 1.0336-1.2919 1.0138-1.3118 1.0336-1.2919 1.0336-1.2919 1.0336-1.3118 1.0138-1.2919 1.0336-1.2919 1.0336-1.3118 1.0336-1.2919 1.0138-1.3118 1.0336-1.2919 2.445-2.7429 2.4649-2.7429 2.445-2.723 2.4649-2.723 2.445-2.6833 2.4847-2.6833 2.4649-2.6833 2.4847-2.6634 2.4847-2.6435 2.4847-2.6236 2.5046-2.6236 2.5046-2.6038 2.5245-2.5839 2.5245-2.5839 2.5444-2.564 2.5643-2.5441 2.5643-2.5441 2.5642-2.5242 2.5841-2.5242 2.604-2.4845 2.6239-2.4845 2.6438-2.4845 2.6438-2.4448 2.6636-2.4448 2.6835-2.4249 2.6835-2.4249 2.7233-2.405 2.7432-2.3851 2.7432-2.3851 2.7829-2.3454 2.7829-2.3652 2.8227-2.3255h0.9939l1.8685 2.1864 1.8884 2.1864 1.9083 2.2062 1.9083 2.2261 1.9083 2.2261 1.9282 2.2261 1.948 2.246 1.948 2.246 1.9679 2.2659 1.9679 2.2659 1.9878 2.2659 1.9878 2.2857 2.0077 2.2857 2.0077 2.2857 2.0276 2.2857 2.0474 2.2857-2.6239 2.3851-2.6239 2.3454-2.6438 2.3255-2.6636 2.3056-2.6835 2.3056-2.6835 2.3056-2.6835 2.2857-2.6835 2.2857-2.6835 2.3056-2.6636 2.2857-2.6636 2.3056-2.6438 2.3056-2.6239 2.3255-2.604 2.3454-2.5643 2.3652-2.5643 2.3851 4.0154 3.8361 4.0154 3.8559 4.0154 3.8361 4.0154 3.8559 4.0153 3.8361 4.0154 3.8559 4.0154 3.8559 4.0153 3.8361 4.0154 3.856 4.0154 3.8559 4.0153 3.8559 4.0154 3.8559 4.0154 3.8559 4.0153 3.8559 4.0154 3.856 4.0154 3.8559 0.19877 0.01987 0.19878 0.03976 0.21866 0.05962 0.19878 0.05963 3.8364-3.7963 3.8563-3.7963 3.8563-3.7963 3.8563-3.7963 3.8364-3.7963 3.8563-3.7963 3.8563-3.7764 3.8762-3.7963 3.8563-3.7963 3.8563-3.7963 3.8563-3.7963 3.8563-3.7963 3.8762-3.7963 3.8563-3.7963 3.8563-3.7963 3.8762-3.7963-0.07952-0.51677-0.25841-0.61616-0.39756-0.71554-0.5367-0.81492-0.67585-0.89442-0.815-0.97392-0.91439-1.0534-1.0138-1.1329-1.1132-1.1926-1.2126-1.2323-1.2921-1.2919-1.3517-1.3516-1.4113-1.3714-1.471-1.4112-1.4908-1.4311-1.5505-1.4311-3.1208-2.9416-3.1606-2.9218-3.0811-2.882-2.9618-2.7826-1.3915-1.3317-1.3517-1.2919-1.2722-1.2323-1.1927-1.1926-1.0933-1.113-1.0138-1.0534-0.89451-0.97392-0.77524-0.9143 2.0673-2.087 2.0872-2.087 2.0673-2.087 2.0872-2.087 2.0673-2.0671 2.0872-2.087 2.0673-2.087 2.0872-2.087 2.0673-2.0671 2.0872-2.087 2.0872-2.0671 2.0872-2.087 2.0673-2.0671 2.0872-2.0671 2.1071-2.087 2.0872-2.0671h1.0734l6.4404 6.4398 5.6255 5.6448 4.8701 4.8895 4.1942 4.1938 3.5582 3.5578 2.9618 2.9615 2.445 2.4249 1.9679 1.9478 1.5306 1.5106 1.1927 1.1528 0.85476 0.83479 0.61621 0.55653 0.41744 0.35777 0.25841 0.17888 0.1789 0.09938 0.13915 0.03975 0.67585-0.67578 0.69573-0.67578 0.67585-0.67578 0.71561-0.67578 0.69572-0.67578 0.69573-0.67578 0.71561-0.67578 0.71561-0.67578 1.0933 1.0733 1.133 1.0534 1.1132 1.0733 1.1132 1.0534 1.1132 1.0733 1.1132 1.0534 1.1132 1.0733 1.1132 1.0534 1.1132 1.0733 1.1132 1.0534 1.1132 1.0733 1.1132 1.0534 1.1132 1.0534 1.1132 1.0733 1.1132 1.0534 1.1132 1.0733-0.01988 0.21864-0.01987 0.19876-0.05964 0.23851-0.05963 0.21864-0.09939 0.21864-0.09939 0.23851-0.11927 0.21864-0.13915 0.23851-0.29816 0.45715-0.33793 0.47702-0.39756 0.45715-0.39756 0.47702-0.43731 0.45715-0.43732 0.43727-0.43731 0.43727-0.43732 0.4174-0.81499 0.75529-0.69573 0.67578 1.0734 1.0733 1.0734 1.0733 1.0933 1.0534 1.0734 1.0733 1.0734 1.0733 1.0734 1.0733 1.0734 1.0932 1.0535 1.0932 1.0535 1.1329 1.0535 1.1329 1.0336 1.1727 1.0336 1.2124 1.0138 1.2323 0.9939 1.2721 0.99389 1.3118 0.97402 1.3714 2.0077 3.8162 2.0276 3.8361 2.0276 3.8361 2.0474 3.8361 2.0276 3.8361 2.0276 3.8361 2.0474 3.8361 2.0276 3.8559 2.0474 3.8361 2.0276 3.8361 2.0474 3.8559 2.0276 3.8361 2.0474 3.8559 2.0474 3.8361 2.0276 3.8559 2.0474 3.8361-4.2539-1.9478-4.2539-1.928-4.2539-1.928-4.234-1.9478-4.2539-1.928-4.2539-1.928-4.2539-1.928-4.2539-1.928-4.2539-1.928-4.2539-1.928-4.2539-1.928-4.234-1.9081-4.2539-1.928-4.2539-1.928-4.2539-1.928-4.2539-1.9081-0.93427-0.93417-0.95414-0.93417-0.93426-0.9143-0.95415-0.91429-0.93426-0.93417-0.95414-0.9143-0.93426-0.9143-0.93427-0.91429-0.95414-0.9143-0.93426-0.91429-0.93427-0.9143-0.93426-0.91429-0.93427-0.91429-0.93426-0.9143-0.93426-0.89442-0.93427-0.9143h-0.05963l-0.05963 0.01988-0.07952 0.05963-0.11926 0.05963-0.35781 0.29814-0.61621 0.5764-0.93427 0.93417-1.3716 1.3714-1.8884 1.928-2.4649 2.5441-3.1805 3.2795-3.9358 4.0944-4.8105 5.0088-5.7447 5.9827-6.7983 7.0758-7.9114 8.2485-9.1439 9.5206-10.436 10.892v1.1727l6.6591 6.3603 6.6591 6.3404 6.679 6.3603 6.6591 6.3603 6.6591 6.3603 6.6591 6.3603 6.679 6.3802 6.6591 6.3603 6.679 6.3603 6.6591 6.3603 6.679 6.3603 6.6591 6.3802 6.679 6.3603 6.679 6.3802 6.679 6.3603 6.679 6.3802-0.15902 0.79504-0.23853 0.83479-0.31805 0.87454-0.37768 0.87454-0.43732 0.9143-0.49695 0.91429-0.55658 0.93418-0.59634 0.95404-0.65597 0.95405-0.71561 0.95405-0.73548 0.95405-0.79512 0.95404-0.81499 0.93417-0.85476 0.93418-0.87463 0.93417-0.91438 0.89442-0.93427 0.87454-0.93426 0.85467-0.97402 0.83479-0.97402 0.79504-0.97402 0.75529-0.9939 0.73541-0.99389 0.67578-0.9939 0.63603-0.97402 0.57641-0.97402 0.53665-0.97402 0.47702-0.93427 0.39752-0.93426 0.35777-0.91438 0.27826-0.87463 0.21864-0.85476 0.13913z" fill="#f6b800" fill-rule="evenodd"/></g></svg>