<?xml version="1.0" encoding="UTF-8" standalone="no"?><svg xmlns="http://www.w3.org/2000/svg" xmlns:xlink="http://www.w3.org/1999/xlink" clip-rule="evenodd" fill="#000000" fill-rule="evenodd" height="4242" image-rendering="optimizeQuality" preserveAspectRatio="xMidYMid meet" shape-rendering="geometricPrecision" text-rendering="geometricPrecision" version="1" viewBox="2394.0 2447.0 4365.0 4242.0" width="4365" zoomAndPan="magnify"><defs><linearGradient gradientUnits="userSpaceOnUse" id="a" x1="10043" x2="-898.9" xlink:actuate="onLoad" xlink:show="other" xlink:type="simple" y1="6303" y2="2841"><stop offset="0" stop-color="#292929"/><stop offset="1" stop-color="#292929"/></linearGradient></defs><g id="change1_1"><path d="m6012 4718v1886c0 47-38 85-85 85h-2710c-46 0-84-38-84-85v-1886h-655c-46 0-84-38-84-84 0-26 11-48 28-64l2028-2089c33-34 86-34 119-2l2156 2094c33 32 34 86 1 119-16 17-38 26-60 26h-654zm-1871 508h859c47 0 85 38 85 85v7l2 1201h755v-1885c0-47 38-85 85-85h531l-1946-1890-1834 1890h539c47 0 85 38 85 85v1885h755v-1208c0-47 38-84 84-84v-1zm775 170h-690l-1 1123h694l-3-1123z" fill="#292929" fill-rule="nonzero"/></g></svg>